# xmcd
#
# Track frame offsets:
#	150
#	18484
#	36739
#	52932
#	69588
#	86176
#	105175
#	123661
#	140618
#	159405
#	174938
#	191847
#	209587
#	226669
#	247011
#	264567
#	284186
#	300451
#	318575
#	332559
#
# Disc length: 4730 seconds
#
# Revision: 1
# Processed by: cddbd v1.5.2PL0 Copyright (c) Steve Scherf et al.
# Submitted via: audiograbber 1.83.01
#
DISCID=2a127814
DTITLE=Various Artist - Dance Collection 95
DYEAR=2004
DGENRE=Dance
TTITLE0=Alexia - Me and You
TTITLE1=N-Trance - Staying Alive
TTITLE2=740 Boyz - Shimmy Shake
TTITLE3=Sin With Sebastian - Shut Up (And Sleep With Me)
TTITLE4=Scatman John - Scatman´s World
TTITLE5=Whigfield - Think Of You
TTITLE6=Cherry Coke - No Hagas El Indio Haz El Cherokee
TTITLE7=2 Fabiola - Play This Song
TTITLE8=Ini Kamoze - Here Comes The Hotstepper
TTITLE9=Scanners - Pure
TTITLE10=Corona - Baby Baby
TTITLE11=Netzwerk - Memories
TTITLE12=Double You - Dancing With An Angel
TTITLE13=Mew Limit - Smile
TTITLE14=Rebeca - Corazon Corazon
TTITLE15=Ku Minerva - Llorando Por Ti
TTITLE16=Molella - If You Wanna Party
TTITLE17=Nightcrawlers - Push The Feeling On
TTITLE18=Dagon - Boom Chaka
TTITLE19=Newton - Streamline
EXTD=
EXTT0=
EXTT1=
EXTT2=
EXTT3=
EXTT4=
EXTT5=
EXTT6=
EXTT7=
EXTT8=
EXTT9=
EXTT10=
EXTT11=
EXTT12=
EXTT13=
EXTT14=
EXTT15=
EXTT16=
EXTT17=
EXTT18=
EXTT19=
PLAYORDER=
